<?xml version="1.0" encoding="UTF-8"?>
<svg id="Layer_2" data-name="Layer 2" xmlns="http://www.w3.org/2000/svg" viewBox="0 0 560.08 689.16">
  <defs>
    <style>
      .cls-1 {
        stroke: #fff;
        stroke-miterlimit: 10;
      }

      .cls-1, .cls-2, .cls-3 {
        fill: #010101;
      }

      .cls-2 {
        stroke: #010101;
        stroke-miterlimit: 4;
        stroke-width: 1px;
      }
    </style>
  </defs>
  <g id="Layer_1-2" data-name="Layer 1">
    <g>
      <g>
        <path class="cls-3" d="m416.83,111.27c5.12,4.1,9.16,9.39,12.4,15.06,4.13,7.26,6.99,15.19,9.08,23.26,2.34,9.12,3.67,18.49,4.25,27.89.59,9.8.33,19.66-.79,29.42-.91,7.81-2.37,15.56-4.61,23.1-.43,1.31-.73,2.67-1.32,3.91-1.2-4.27-2.5-8.5-3.93-12.7-.07-.2-.14-.4-.2-.59-.2-.6-.4-1.2-.62-1.8-.4-1.14-.75-2.3-1.22-3.42-.43-1.29-.88-2.57-1.42-3.82-.17-.55-.37-1.08-.61-1.59-.18-.55-.37-1.09-.6-1.61-.13-.34-.27-.67-.4-1-1.27-3.18-2.58-6.36-4.03-9.46-.32-.91-.8-1.75-1.21-2.61-.14-.28-.27-.55-.4-.82-.7-1.65-1.5-3.27-2.41-4.81-.14-.27-.28-.54-.41-.81-.46-.88-.84-1.8-1.4-2.61-.31-.62-.62-1.24-.99-1.82-.19-.34-.39-.68-.61-1-.24-.49-.49-.97-.8-1.41-.24-.42-.48-.83-.73-1.23-.22-.36-.43-.72-.64-1.09-.06-.06-.19-.19-.25-.25-.3-.7-.77-1.29-1.17-1.93-.67-1.01-1.37-2.01-2-3.04-.06-.07-.18-.2-.24-.27-.34-.6-.77-1.15-1.17-1.71-.76-1.11-1.59-2.15-2.42-3.21-.45-.63-.98-1.19-1.4-1.83-.36-.38-.75-.75-1.01-1.21-.66-.64-1.13-1.44-1.82-2.06-.6-.55-1-1.29-1.62-1.83-2.13-2.03-4.07-4.26-6.34-6.13-2.06-1.82-4.21-3.56-6.49-5.11-.07-.06-.2-.17-.27-.23-.84-.5-1.64-1.06-2.44-1.61-.75-.47-1.5-.94-2.28-1.37-.32-.21-.66-.41-.99-.6-.29-.13-.57-.26-.85-.38-.07-.07-.21-.21-.28-.28-1.38-.62-2.68-1.42-4.1-1.95-.59-.29-1.19-.58-1.8-.82-.33-.14-.67-.27-1-.4-8.58-3.43-17.89-4.94-27.11-4.75-12.99.29-25.76,3.6-37.79,8.36-2.08.79-4.13,1.68-6.18,2.54l-.02.08c-.61.19-1.19.48-1.78.73l-.04.08c-1.09.37-2.09.93-3.11,1.46l-.31-.02v.29c-.1-.03-.3-.09-.4-.12v.21c-1.54.55-2.94,1.44-4.43,2.14v.19c-.1-.03-.3-.09-.4-.12v.31c-.1-.02-.3-.08-.39-.1v.29c-.11-.02-.3-.06-.39-.08l-.03.19c-1.02.45-1.99,1.01-2.98,1.53l-.04.1c-.37.13-.74.27-1.11.39.43-1.77,1.07-3.49,1.47-5.27.64-2.64,1.33-5.33,1.2-8.07-.06-1.56-.77-3.19-2.17-3.97-1.09-.44-2.29-.64-3.45-.41-2.83.3-5.54,1.18-8.24,2.02-8.72,2.77-17.49,5.77-26.68,6.51-1.08.02-2.14.25-3.22.2-1.34-.05-2.67.21-4.01.19-1.48.04-2.97-.01-4.45.17-2.35.08-4.7-.03-7.04.19-4.37.12-8.75-.04-13.11.23-4.23-.01-8.45.03-12.68.08-2.62.24-5.25.06-7.87.2-1.79.24-3.6.03-5.39.26-8.31.43-16.72,1.24-24.66,3.88-2.47.91-4.91,1.92-7.17,3.28-.76.45-1.47.96-2.21,1.43-.8.55-1.57,1.15-2.32,1.77-4.34,3.54-7.56,8.27-9.97,13.29-2.88,6.04-4.71,12.52-6.13,19.04-2.8,13.28-3.98,26.84-4.84,40.36-.15-.16-.27-.33-.35-.53-2.13-5.97-4.26-11.95-6.44-17.9-.07-.2-.15-.4-.22-.59-.25-.75-.49-1.49-.81-2.21-.84-2.47-1.79-4.9-2.68-7.35-3.43-10.18-5.5-20.83-5.97-31.56-.2-3.08-.09-6.18-.07-9.27.18-1.33.12-2.68.28-4.01.63-8.39,2.37-16.71,5.22-24.63.22-.53.42-1.06.6-1.6.14-.33.28-.67.41-1,.13-.34.27-.67.4-1,.21-.47.42-.93.6-1.41.37-.8.75-1.58,1.1-2.38,3.48-7.18,8.01-13.87,13.55-19.63,5-5.25,10.8-9.73,17.08-13.34,1.86-1.09,3.81-2.04,5.8-2.89,2.74-1.18,5.68-2.24,7.77-4.46,1.26-1.23,2.12-2.77,2.98-4.28,4.22-5.91,9.55-10.98,15.49-15.13,6.48-4.53,13.66-7.99,21.08-10.67,8.28-2.98,16.87-5.02,25.53-6.5,16.43-2.77,33.12-3.55,49.76-3.68,23.17-.13,46.3,1.26,69.46,1.75,9.81.13,19.65,7.18,29.42,6.23"/>
        <path class="cls-3" d="m442.69,371.44c-.32-7.82-1.56-17.69-6.68-18.57-13.9-2.38-3.96,48.59-28.07,59.81-20.88,9.72-7.51,15.32-74.04-24.79-28.06-16.92-33.6-8.11-44.03-6.91-6.04.69-11.94-1.52-17.87-2.73-14.52-2.94-24.28,8.2-36.13,13.39-5.65,2.47-11.88,3.87-17.55,6.32-8.66,3.75-11.36,10.89-18.68,15.77-6.86,4.57-14.18,9.72-23.25,10.15-27.11,1.31-42.98-41.3-44.19-64.29-1.07-20.25-32.7-6.98-.68,87.44,10.67,31.48,72.93,83.59,105.2,101.76,23.42,13.19,44.69,20.6,72.63,13.3,34.36-8.97,53.44-32.93,74.34-55.56,44.23-47.88,61.19-80.89,59.01-135.11h0Zm-118.61,81.44c1.1-3,3.43-1.35-6.67-6.55-39.08-20.1-46.87-8.31-63.51-.41-4.57,2.17-2.79,3.55-3.13,7.28-.69,7.61-20.27.34-23.6-2.23-7.2-5.54-1.49-19.13,2-25.03,16.39-27.73,40.47-26.39,59.41-27.35,25.12-1.26,36.6,3.63,51.78,27.25,17.6,27.39-18.85,34.07-16.27,27.04h0Z"/>
      </g>
      <path class="cls-1" d="m498.75,239.96C409.97,124.54,410.54,8.71,283.07.79v-.28c-1.01.03-2.02.07-3.02.11-1-.05-2.02-.08-3.03-.11v.28c-127.47,7.91-126.89,123.75-215.67,239.16C-28.83,357.17,7.9,474.39,7.9,474.39c0,0,84.15-9.12,153.61,66.68,69.46,75.81,96.18,143.19,96.18,143.19l5.49,1.08s-68.63-291.49-175.49-257.8c1.34-58.26-18.7-124.94,31.39-174.77,50.09-49.84,71.14-63.49,101.19-101.39,30.06-37.9,33.05-88.82,93.83-69.87,60.78,18.95,66.79,65.98,87.49,92.65,20.7,26.67,97.51,94.76,84.82,148.1-12.69,53.34-52.1,81.42-110.2,179.69-58.11,98.27-78.14,130.55-80.15,145.29-2,14.74-32.89,38.1-32.89,38.1l16.86,3.31,22.35-4.39s26.72-67.38,96.18-143.19c69.46-75.81,153.61-66.68,153.61-66.68,0,0,36.73-117.22-53.43-234.44Z"/>
      <g>
        <path class="cls-2" d="m388.19,215.23c-29.26.46-57.37,9.86-86.06,13.78-11.97,1.64-24.32,2.12-36.34.81-15.98-1.74-31.48-6.61-47.45-8.72-14.27-1.88-28.73-3.84-43.08-3.8-25.07.08-49.25,8.15-73.79,12.61.07,7.19-1.31,16.43,2.41,21.45,3.84,5.18,10.28,9.89,12,16.93,4.09,16.71,9.82,33.08,17.1,48.76,3.54,7.62,10.14,12.89,17.48,16.5,17.69,8.69,38.54,9.8,57.84,6.84,27.47-4.21,42.21-24.99,53.38-48.68,4.18-9.63,4.55-20.7,10.08-29.51,3.29-5.23,11.05-3.11,16.58-3.18,5.53-.07,10.31,9.09,12.08,15.2,6.27,21.62,16.62,44.53,36.86,55.71,30.23,16.69,77.57,13.09,96.8-17.68,7.53-12.04,9.5-26.59,13.21-40.18,2.26-8.27,4.25-18.13,12.5-22.74,3.33-1.86.92-9.15,1.37-13.4.5-4.63,1.5-8.73-5.09-9.58-11.5-1.48-22.68-6.2-34.45-7.73-11.15-1.45-22.08-3.58-33.44-3.4h0Zm-193.36,9.46c8.3-.13,16.58.4,24.67,2.04,48.19,9.74,49.34,29.54,29.91,70.7-15.83,33.53-49.18,42.2-82.93,34.5-15.56-3.55-26.27-14.29-31.41-29.08-5.43-15.62-9.57-32.22-8.82-48.69,1.01-22.06,25.92-25.38,43.75-27.55,8.18-1,16.52-1.78,24.83-1.91h0Zm175.62-1.6c8.31-.02,16.66.61,24.86,1.46,17.87,1.85,42.84,4.72,44.25,26.75,1.05,16.45-2.79,33.13-7.93,48.84-4.87,14.89-15.39,25.82-30.88,29.65-33.61,8.31-67.11.25-83.54-32.99-20.17-40.79-19.38-60.62,28.63-71.23,8.06-1.78,16.32-2.46,24.63-2.49h0Z"/>
        <g>
          <path class="cls-1" d="m169.99,226.61c16.37-1.99,33.32-3.14,49.49.13,48.19,9.74,49.34,29.55,29.91,70.7-15.83,33.53-49.16,42.2-82.91,34.51-15.56-3.55-26.28-14.33-31.42-29.12-5.43-15.62-9.6-32.21-8.84-48.68,1.01-22.06,25.93-25.35,43.77-27.52h0s0,0,0,0Z"/>
          <path class="cls-1" d="m395.29,224.56c-16.4-1.69-33.37-2.54-49.48,1.02-48.01,10.61-48.8,30.44-28.62,71.23,16.44,33.24,49.92,41.3,83.53,32.99,15.49-3.83,26.01-14.8,30.89-29.69,5.14-15.71,9.01-32.38,7.96-48.83-1.41-22.03-26.39-24.88-44.26-26.72h0s0,0,0,0Z"/>
        </g>
      </g>
    </g>
  </g>
</svg>